<?xml version="1.0" encoding="utf-8"?>
<!-- Generator: Adobe Illustrator 24.0.1, SVG Export Plug-In . SVG Version: 6.00 Build 0)  -->
<svg version="1.1" id="Layer_1" xmlns:v="https://vecta.io/nano"
	 xmlns="http://www.w3.org/2000/svg" xmlns:xlink="http://www.w3.org/1999/xlink" x="0px" y="0px" viewBox="0 0 252.1 225"
	 style="enable-background:new 0 0 252.1 225;" xml:space="preserve">
<style type="text/css">
	.st0{fill:url(#SVGID_1_);stroke:#FFFFFF;stroke-miterlimit:10;}
</style>
<linearGradient id="SVGID_1_" gradientUnits="userSpaceOnUse" x1="18.6355" y1="111.405" x2="233.5" y2="111.405">
	<stop  offset="0" style="stop-color:#FF00C7"/>
	<stop  offset="0.229" style="stop-color:#F600CF"/>
	<stop  offset="0.6015" style="stop-color:#DE00E3"/>
	<stop  offset="1" style="stop-color:#BD00FF"/>
</linearGradient>
<path class="st0" d="M233.5,83.9l-0.7,5.1c-2.1,14.6-8.1,27.4-17.2,38.9c-0.4,0.5-0.7,1-1.1,1.4c-1.9,1.6-2.2,3.6-2.1,6
	c0.2,5.8,0.3,11.5,0.1,17.3c-0.4,10.3-7.8,17.1-18.1,17.3h-2.6v7.7c0,3.4,0.3,6.9-0.1,10.3c-1.5,11.4-13,18.3-23.9,14.7
	c-6.9-2.3-10.5-7.3-11.7-14.2c-0.2-1.3-0.3-2.7-0.5-4c-0.1-0.4-0.3-0.8-0.4-1.3c-0.4,0.2-0.8,0.4-1.2,0.6l-27.6,23
	c-0.2,0.2-0.4,0.3-0.7,0.6L88,176.4c-1.6,2.6-3.6,4.7-6.2,6.2c-11,6-24.7,0-26.7-12.9c-0.3-2-0.5-4-0.5-6.1l-0.1-14.9
	c0-1.3-0.5-2-1.3-2.9c-5.1-5.5-10.4-10.9-15.1-16.7c-4-5-7.7-10.3-10.7-15.8c-4.9-9.1-7.8-19-8.5-29.4c-0.8-11.2,0.6-22,5.4-32.2
	C32.9,33.5,47.2,22,66.8,17.3c3.6-0.9,7.3-1.1,11-1.6c0.4-0.1,0.7-0.2,1.1-0.2h4.3l5.5,0.6c12.5,1.6,23.7,6.4,33.6,14.2
	c1.5,1.2,2.9,2.4,4.4,3.6l1.4-1.2c4.4-3.7,8.9-7.1,14-9.6c11-5.5,22.7-7.3,34.9-6.1c15.5,1.5,28.9,7.6,39.5,19.1
	c8.8,9.4,14.3,20.6,16.1,33.4l0.7,5.2C233.5,74.7,233.5,83.9,233.5,83.9z M126.1,50.3c-0.2-0.2-0.3-0.5-0.5-0.7
	c-2.7-2.8-5.3-5.8-8.2-8.3c-14-11.8-29.9-16.7-48.1-12.6c-15.6,3.6-27.1,12.8-34,27.3c-5.5,11.4-6,23.4-3.4,35.6
	c2,9.6,6.5,18.1,12.2,26c5.9,8.2,12.8,15.4,19.9,22.4c1.7,1.6,2.4,3.4,2.4,5.8c-0.1,5.7-0.1,11.4,0,17.1c0,1.7,0.2,3.5,0.5,5.2
	c0.5,3.1,3.1,5,6.4,5c2.9,0,5.1-2,5.6-5.1c0.3-2,0.5-4,0.8-6.1c0.2-1.4,0.6-2.7,2-3.3c1.5-0.6,2.7,0,3.8,1l38.8,32.2
	c0.8,0.7,1.3,0.7,2.1,0l35.5-28.6c0.6-0.4,1.1-0.9,1.8-1.2c1.6-0.8,2.8-0.3,3.3,1.4c0.4,1.4,0.6,2.9,0.6,4.4c0.1,4.3,0,8.6,0,13
	c0,2.6,0.4,5.2,2,7.4c2.7,3.6,7.3,3.2,9.2-0.9c0.3-0.7,0.6-1.4,0.8-2.1c1-3.8,0.7-7.7,0.6-11.6l-0.1-15.5c0-2.5,1.5-4.4,3.6-4.9
	c2.2-0.6,4.4,0.3,5.5,2.4c1.3,2.3,3.4,2.9,5.8,2.7c2.4-0.2,4.4-1.3,5.1-3.7c0.5-1.6,0.7-3.4,0.7-5.1c0-5.8,0.1-11.7-0.2-17.5
	c-0.1-3.2,0.9-5.7,2.9-7.9c8.9-10,15-21.4,17.4-34.7c2.1-12.1,0.7-23.8-5.4-34.5c-10.1-17.9-26-26.3-46.4-26.1
	c-11.8,0.1-22.3,4-31.4,11.6C133.9,43.4,130.1,46.8,126.1,50.3L126.1,50.3z"/>
</svg>
