<?xml version="1.0" encoding="utf-8"?>
<!-- Generator: Adobe Illustrator 24.0.1, SVG Export Plug-In . SVG Version: 6.00 Build 0)  -->
<svg version="1.1" id="Layer_1" xmlns="http://www.w3.org/2000/svg" xmlns:xlink="http://www.w3.org/1999/xlink" x="0px" y="0px"
	 viewBox="0 0 862 186" style="enable-background:new 0 0 862 186;" xml:space="preserve">
<style type="text/css">
	.st0{clip-path:url(#SVGID_2_);fill:url(#SVGID_3_);}
	.st1{clip-path:url(#SVGID_2_);fill:none;stroke:#000000;stroke-width:4;stroke-miterlimit:10;}
	.st2{fill:url(#SVGID_4_);}
	.st3{fill:url(#SVGID_5_);}
</style>
<g id="Layer_2">
</g>
<g>
	<defs>
		<path id="SVGID_1_" d="M84.4,90.7l-1.2-1.9c-1.7-2.7-3.1-5.4-4.1-8.2c-1-2.7-1.8-5.5-2.2-8.3c-0.3-2.8-0.5-5.8-0.5-9
			c-0.2-8.9,1.3-15.8,4.4-20.5c3.2-4.7,9.3-7.1,18.3-7.1c8.9,0,16.3,2.4,22,7.1c5.8,4.7,8.9,11.6,9.1,20.5c0,1-0.3,1.9-1,2.5
			c-0.6,0.6-1.5,1-2.5,1h-10.3c-1,0-1.9-0.3-2.5-1c-0.6-0.6-1-1.5-1-2.5v-1.1c-0.1-3.9-1-6.8-2.8-8.5c-1.7-1.7-4-2.5-7-2.5
			c-2.9,0-5.1,0.8-6.5,2.5c-1.3,1.7-2,4.5-1.9,8.5c0,2.1,0.2,4,0.6,5.8c0.4,1.8,1.2,3.6,2.2,5.5c1,1.9,2.3,3.9,3.9,6
			c1.6,2.1,3.6,4.3,5.9,6.7c1.4,1.5,2.7,3,3.8,4.4c1.1,1.5,2.2,3,3.1,4.4c1.8,2.7,3.3,5.5,4.4,8.2c1,2.7,1.8,5.5,2.2,8.3
			c0.4,2.8,0.7,5.8,0.7,9c0.4,9-1,15.8-4.2,20.6c-3.3,4.7-9.5,7-18.3,7c-9.1,0-16.5-2.3-22.4-7c-5.9-4.7-9.1-11.6-9.5-20.6
			c0-1.1,0-2.3,0.1-3.4c0-0.9,0.3-1.7,1-2.4c0.7-0.6,1.5-1,2.5-1H81c0.9,0,1.7,0.3,2.4,1c0.7,0.7,1,1.5,1,2.4c-0.1,1.5-0.1,3,0,4.5
			c0.1,3.9,1.2,6.7,3.1,8.4c1.8,1.6,4.2,2.5,7.2,2.5c2.9,0,5.2-0.8,6.7-2.5c1.4-1.6,2.1-4.4,1.9-8.4c-0.1-1.9-0.3-3.8-0.7-5.7
			c-0.4-1.9-1.2-3.8-2.2-5.6c-1.1-1.8-2.5-3.8-4.1-5.9c-1.6-2.1-3.7-4.4-6.1-6.8C87.8,95.1,85.9,92.8,84.4,90.7z M197.9,91.8
			c5.4-17.2,5.9-34.4,1.3-51.8c-0.3-1.2-0.1-2.2,0.5-3.1c0.6-0.8,1.6-1.3,2.8-1.3h8.2c1.2,0,2.4,0.4,3.6,1.3
			c1.1,0.8,1.8,1.9,2.2,3.1c4.6,17.4,4.2,34.6-1.3,51.8h-0.1c-2.5,7.7-3.9,15.5-4.3,23.5c-0.2,4.5-0.9,8.8-2.2,12.9
			c-1.3,4-3.1,7.5-5.4,10.5c-2.3,2.9-5.2,5.2-8.7,6.9c-3.5,1.6-7.5,2.5-12,2.5s-9-0.8-13.5-2.5c-4.4-1.7-8.5-4-12-7
			c-3.6-3-6.5-6.5-8.6-10.4c-2.1-4-3.1-8.3-2.8-12.8c0.4-8,1.8-15.8,4.3-23.5c5.4-17.2,5.9-34.4,1.3-51.8c-0.3-1.2-0.1-2.2,0.4-3.1
			c0.6-0.8,1.5-1.3,2.8-1.3h8.2c1.3,0,2.6,0.4,3.7,1.3c1.1,0.8,1.8,1.9,2.2,3.1c4.6,17.4,4.2,34.6-1.3,51.8h-0.1
			c-2.4,7.5-3.9,15.2-4.3,23.1c-0.1,2.1,0.3,4.2,1.1,6.2c0.8,1.9,2,3.6,3.6,5.1c1.5,1.4,3.3,2.6,5.3,3.4c2,0.8,4.1,1.3,6.3,1.3
			c4.2,0,7.6-1.4,10.2-4.3c2.6-2.9,4-6.5,4.1-10.7C193.9,107.6,195.4,99.6,197.9,91.8z M239,92c5.5-17.2,5.9-34.5,1.3-51.9
			c-0.3-1.2-0.1-2.2,0.4-3.1c0.6-0.8,1.5-1.3,2.7-1.3h25.3c7.2,0,13.6,1.6,19.3,4.8c5.6,3.2,10,7.3,13,12.3c3,4.9,4.3,10.3,4,16.1
			c-0.4,5.8-2.5,11.1-6.2,15.9c-0.7,0.9-1.1,1.8-1.2,2.8c-0.1,1,0.2,1.9,0.8,2.5c0.6,0.6,1.1,1.2,1.6,1.9c1.6,2.3,2.8,5,3.5,8.1
			c1,3.9,1.5,8.1,1.6,12.4c0,4.3-0.4,8.7-1.3,12.9c-0.8,4.3-2.2,8.1-4.2,11.5c-2,3.3-4.8,6-8.4,8.1c-3.5,2-8.1,3.1-13.8,3.1h-34.1
			c-1.2,0-2.4-0.4-3.5-1.3c-1.1-0.8-1.9-1.9-2.2-3.1C233.1,126.4,233.5,109.1,239,92z M286.1,123c1-2.3,1.6-4.8,1.8-7.4
			c0.1-2.6-0.1-5-0.9-7.3c-0.7-2.2-2-4.1-3.9-5.6c-1.8-1.4-4.4-2.2-7.7-2.2h-17c-1.2,0-2.4,0.4-3.4,1.3c-1,0.8-1.7,1.9-1.9,3.1
			c-1.2,7.1-1.5,14.3-1,21.5c0.1,1.2,0.6,2.3,1.6,3.2c1,0.8,2.1,1.3,3.3,1.3H274c3.1,0,5.7-0.7,7.7-2.2
			C283.7,127.1,285.2,125.3,286.1,123z M260.5,57.5c0.5,7.2,0.1,14.3-1,21.5c-0.2,1.2,0,2.3,0.7,3.1c0.6,0.9,1.6,1.3,2.8,1.3h8.2
			c3.2,0,6-0.7,8.5-2.2c2.4-1.5,4.4-3.4,5.8-5.6c1.4-2.2,2.2-4.7,2.3-7.3c0.1-2.6-0.4-5.1-1.6-7.4c-1.1-2.2-2.9-4.1-5.2-5.6
			c-2.3-1.5-5.1-2.2-8.4-2.2h-8.2c-1.2,0-2.2,0.4-3,1.3C260.8,55.2,260.4,56.2,260.5,57.5z M338.1,90.7l-1.2-1.9
			c-1.7-2.7-3.1-5.4-4.1-8.2c-1-2.7-1.8-5.5-2.2-8.3c-0.3-2.8-0.5-5.8-0.5-9c-0.2-8.9,1.3-15.8,4.4-20.5c3.2-4.7,9.3-7.1,18.3-7.1
			c8.9,0,16.3,2.4,22,7.1c5.8,4.7,8.9,11.6,9.1,20.5c0,1-0.3,1.9-1,2.5c-0.6,0.6-1.5,1-2.5,1h-10.3c-1,0-1.9-0.3-2.5-1
			c-0.6-0.6-1-1.5-1-2.5v-1.1c-0.1-3.9-1-6.8-2.8-8.5c-1.7-1.7-4-2.5-7-2.5c-2.9,0-5.1,0.8-6.5,2.5c-1.3,1.7-2,4.5-1.9,8.5
			c0,2.1,0.2,4,0.6,5.8c0.4,1.8,1.2,3.6,2.2,5.5c1,1.9,2.3,3.9,3.9,6c1.6,2.1,3.6,4.3,5.9,6.7c1.4,1.5,2.7,3,3.8,4.4
			c1.1,1.5,2.2,3,3.1,4.4c1.8,2.7,3.3,5.5,4.4,8.2c1,2.7,1.8,5.5,2.2,8.3c0.4,2.8,0.7,5.8,0.7,9c0.4,9-1,15.8-4.2,20.6
			c-3.3,4.7-9.5,7-18.3,7c-9.1,0-16.5-2.3-22.4-7c-5.9-4.7-9.1-11.6-9.5-20.6c0-1.1,0-2.3,0.1-3.4c0-0.9,0.3-1.7,1-2.4
			c0.7-0.6,1.5-1,2.5-1h10.4c0.9,0,1.7,0.3,2.4,1c0.7,0.7,1,1.5,1,2.4c-0.1,1.5-0.1,3,0,4.5c0.1,3.9,1.2,6.7,3.1,8.4
			c1.8,1.6,4.2,2.5,7.2,2.5c2.9,0,5.2-0.8,6.7-2.5c1.4-1.6,2.1-4.4,1.9-8.4c-0.1-1.9-0.3-3.8-0.7-5.7c-0.4-1.9-1.2-3.8-2.2-5.6
			c-1.1-1.8-2.5-3.8-4.1-5.9c-1.6-2.1-3.7-4.4-6.1-6.8C341.5,95.1,339.6,92.8,338.1,90.7z M418.9,92L418.9,92
			c-2.5,8.7-2.8,15.6-0.7,20.8c2,5.2,4.7,9.1,8.2,11.8c3.4,2.6,6.8,4.4,10.3,5.2c3.5,0.7,6.5,1.1,8.8,1.1c1.3,0,2.8-0.1,4.6-0.3
			c1.7-0.2,3.6-0.6,5.5-1.3c1.8-0.7,3.7-1.7,5.6-2.9c1.9-1.2,3.7-2.8,5.4-4.9c0.8-1,1.8-1.2,3.1-0.4c3.6,2.1,7.4,4.2,11.2,6.4
			c0.6,0.3,1.1,0.8,1.3,1.6c0.2,0.7,0.2,1.3-0.2,1.8v0.1c-3.5,5.8-7.9,10.1-13.2,12.9c-5.4,2.8-11.9,4.3-19.5,4.3
			c-7.7,0-15.1-1.4-22-4.2c-6.9-2.8-13-7.1-18.3-13c-4.4-5.1-7.3-10.9-8.8-17.5c-1.5-6.6-1-13.7,1.4-21.4V92h0.1
			c0.7-2.3,1.5-4.6,2.2-6.9c1.6-5.1,3.2-10,4.9-14.6c2.3-6.6,4.9-12.4,7.9-17.4c3.5-5.8,7.9-10.2,13.2-13.1
			c5.3-2.8,11.8-4.3,19.5-4.3c7.7,0,15.1,1.4,22.1,4.3c7,2.9,13.1,7.3,18.3,13.1c0.4,0.5,0.6,1.1,0.6,1.9c-0.1,0.7-0.4,1.2-1,1.5
			c-3.4,2.2-7,4.4-10.6,6.5c-1.2,0.5-2.3,0.3-3.1-0.6c-1.8-2-3.7-3.7-5.8-4.9c-2.1-1.2-4.1-2.2-6.1-2.8c-2-0.7-4-1.1-5.8-1.3
			c-1.8-0.2-3.4-0.3-4.7-0.3c-2.3,0-5.2,0.4-8.5,1.1c-3.3,0.8-6.5,2.5-9.5,5.2c-3,2.7-5.9,6.6-8.5,11.8c-2.2,4.6-4.5,10.5-6.7,17.7
			C419.5,89.8,419.2,90.9,418.9,92z M564.6,91.9c-0.7,0.9-1.4,1.9-2,2.9c-3.3,4.7-7,8.8-10.8,12c-1.7,1.3-2.3,2.9-1.8,4.8
			c2.7,10.3,7.2,20.5,13.4,30.5c0.9,1.4,1.1,2.7,0.6,4c-0.5,1.2-1.5,1.9-3.1,1.9h-8.8c-2.1,0-3.9-0.9-5.2-2.8
			c-5.9-9.1-10.5-18.3-13.5-27.7c-0.6-1.9-2-2.9-4.1-2.9h-6.1c-1.2,0-2.3,0.4-3.2,1.3c-0.9,0.8-1.4,1.9-1.4,3.1
			c0,8.3,1,16.5,3.2,24.6c0.3,1.2,0.2,2.2-0.4,3.1c-0.6,0.8-1.5,1.3-2.8,1.3h-8.4c-1.2,0-2.4-0.4-3.6-1.3c-1.1-0.8-1.8-1.9-2.2-3.1
			c-4.6-17.4-4.2-34.6,1.3-51.8c5.5-17.2,5.9-34.5,1.3-51.9c-0.3-1.2-0.2-2.2,0.4-3.1c0.6-0.8,1.5-1.3,2.8-1.3h25.3
			c5.7,0,11.1,1.3,16,3.8c4.9,2.6,9.1,6,12.4,10.2c3.4,4.2,5.7,8.9,6.8,14.2c1.1,5.3,0.9,10.6-0.4,15.9
			C569,84,567.2,88.1,564.6,91.9z M523,91.9c-0.1,0.3-0.2,0.6-0.3,1c-0.4,1.2-0.3,2.2,0.4,3.1c0.6,0.8,1.6,1.3,2.8,1.3h8.3
			c3.1,0,6.1-1.1,8.9-3.2c0.8-0.6,1.6-1.3,2.4-2.1c1.8-1.7,3.5-3.7,4.9-6c1.9-3.2,3.2-6.8,3.7-10.6c0.5-3.8,0.2-7.4-0.9-10.8
			c-1-3.3-2.7-6.1-5.1-8.3c-2.4-2.2-5.2-3.3-8.5-3.3h-8.3c-1.2,0-2.2,0.4-3,1.3c-0.8,0.9-1.1,2-1,3.2C528,69.1,526.6,80.6,523,91.9z
			 M608.4,92c-5.4,17.2-5.9,34.4-1.3,51.8c0.3,1.2,0.2,2.2-0.4,3.1c-0.6,0.8-1.5,1.3-2.8,1.3h-8.5c-1.2,0-2.4-0.4-3.5-1.3
			c-1.1-0.8-1.9-1.9-2.2-3.1c-4.6-17.4-4.2-34.6,1.3-51.8c5.4-17.2,5.9-34.5,1.3-51.9c-0.3-1.2-0.2-2.2,0.4-3.1
			c0.6-0.8,1.5-1.3,2.7-1.3h8.5c1.2,0,2.4,0.4,3.5,1.3c1.1,0.8,1.9,1.9,2.2,3.1C614.4,57.5,613.9,74.8,608.4,92z M632.3,92
			c5.5-17.2,5.9-34.5,1.3-51.9c-0.3-1.2-0.2-2.2,0.4-3.1c0.6-0.8,1.5-1.3,2.7-1.3H662c7.2,0,13.6,1.6,19.3,4.8
			c5.6,3.2,10,7.3,13,12.3c3,4.9,4.3,10.3,4,16.1c-0.4,5.8-2.5,11.1-6.2,15.9c-0.7,0.9-1.1,1.8-1.2,2.8c-0.1,1,0.2,1.9,0.8,2.5
			c0.6,0.6,1.1,1.2,1.6,1.9c1.6,2.3,2.8,5,3.5,8.1c1,3.9,1.5,8.1,1.6,12.4c0.1,4.3-0.4,8.7-1.3,12.9c-0.8,4.3-2.2,8.1-4.2,11.5
			c-2,3.3-4.8,6-8.4,8.1c-3.5,2-8.1,3.1-13.8,3.1h-34.1c-1.2,0-2.4-0.4-3.5-1.3c-1.1-0.8-1.9-1.9-2.2-3.1
			C626.4,126.4,626.9,109.1,632.3,92z M679.4,123c1-2.3,1.6-4.8,1.8-7.4c0.1-2.6-0.2-5-0.9-7.3c-0.7-2.2-2-4.1-3.9-5.6
			c-1.8-1.4-4.4-2.2-7.7-2.2h-17c-1.2,0-2.4,0.4-3.4,1.3c-1,0.8-1.7,1.9-1.9,3.1c-1.2,7.1-1.5,14.3-1,21.5c0.1,1.2,0.6,2.3,1.6,3.2
			c1,0.8,2.1,1.3,3.3,1.3h17.1c3.1,0,5.7-0.7,7.7-2.2C677,127.1,678.5,125.3,679.4,123z M653.9,57.5c0.5,7.2,0.1,14.3-1,21.5
			c-0.2,1.2,0.1,2.3,0.8,3.1c0.6,0.9,1.6,1.3,2.8,1.3h8.2c3.2,0,6-0.7,8.5-2.2c2.4-1.5,4.4-3.4,5.8-5.6c1.4-2.2,2.2-4.7,2.3-7.3
			c0.1-2.6-0.4-5.1-1.6-7.4c-1.1-2.2-2.9-4.1-5.2-5.6c-2.3-1.5-5.1-2.2-8.4-2.2h-8.2c-1.2,0-2.2,0.4-3,1.3
			C654.1,55.2,653.8,56.2,653.9,57.5z M735.9,92c-0.2,0.3-0.3,0.6-0.4,1c-3.4,11-4.7,22.2-3.9,33.5c0.1,1.2,0.6,2.2,1.6,3.1
			c1,0.8,2.1,1.3,3.3,1.3h29c1.2,0,2.4,0.4,3.4,1.3c0.9,0.8,1.5,1.9,1.7,3.1c0.5,2.8,1.1,5.6,1.9,8.4c0.3,1.2,0.2,2.2-0.4,3.1
			c-0.6,0.8-1.5,1.3-2.8,1.3h-46.3c-1.2,0-2.4-0.4-3.6-1.3c-1.1-0.8-1.9-1.9-2.2-3.1c-4.6-17.4-4.2-34.6,1.3-51.8
			c5.5-17.2,5.9-34.5,1.3-51.9c-0.3-1.2-0.1-2.2,0.4-3.1c0.6-0.8,1.5-1.3,2.8-1.3h46.3c1.2,0,2.4,0.4,3.5,1.3
			c1.1,0.8,1.9,1.9,2.2,3.1c0.7,2.8,1.3,5.6,1.8,8.4c0.2,1.2,0,2.3-0.8,3.2c-0.7,0.8-1.7,1.3-2.9,1.3h-29c-1.2,0-2.2,0.4-3,1.3
			c-0.8,0.8-1.1,1.9-1,3.1c0.2,3.1,0.3,6.2,0.2,9.3c0,1.2,0.4,2.3,1.2,3.2c0.8,0.8,1.8,1.3,3,1.3h19.2c1.3,0,2.4,0.4,3.2,1.3
			s1.1,1.9,0.9,3.1c-0.3,2.8-0.8,5.6-1.4,8.3c-0.3,1.2-1,2.2-2.1,3.1c-1.1,0.9-2.4,1.4-3.7,1.4h-19.2c-1.2,0-2.4,0.4-3.5,1.3
			C736.9,90.5,736.3,91.2,735.9,92z"/>
	</defs>
	<clipPath id="SVGID_2_">
		<use xlink:href="#SVGID_1_"  style="overflow:visible;"/>
	</clipPath>
	<linearGradient id="SVGID_3_" gradientUnits="userSpaceOnUse" x1="-168" y1="80" x2="832" y2="80">
		<stop  offset="0" style="stop-color:#FF00C7"/>
		<stop  offset="0.2315" style="stop-color:#F600CF"/>
		<stop  offset="0.615" style="stop-color:#DC00E4"/>
		<stop  offset="0.9944" style="stop-color:#BD00FF"/>
	</linearGradient>
	<rect x="-168" y="-53" class="st0" width="1000" height="266"/>
	<rect x="-21.9" y="10.6" class="st1" width="887.5" height="173.5"/>
</g>
<g>
	<linearGradient id="SVGID_4_" gradientUnits="userSpaceOnUse" x1="5.5" y1="94" x2="857.5" y2="94">
		<stop  offset="0" style="stop-color:#FF00C7"/>
		<stop  offset="0.2315" style="stop-color:#F600CF"/>
		<stop  offset="0.615" style="stop-color:#DC00E4"/>
		<stop  offset="0.9944" style="stop-color:#BD00FF"/>
	</linearGradient>
	<path class="st2" d="M857.5,181.5H5.5V6.5h852V181.5z M6.5,180.5h850V7.5H6.5V180.5z"/>
	<linearGradient id="SVGID_5_" gradientUnits="userSpaceOnUse" x1="4.5" y1="94" x2="858.5" y2="94">
		<stop  offset="0" style="stop-color:#FF00C7"/>
		<stop  offset="0.2315" style="stop-color:#F600CF"/>
		<stop  offset="0.615" style="stop-color:#DC00E4"/>
		<stop  offset="0.9944" style="stop-color:#BD00FF"/>
	</linearGradient>
	<path class="st3" d="M858.5,182.5H4.5V5.5h854V182.5z M7.5,179.5h848V8.5H7.5V179.5z"/>
</g>
</svg>
